<?xml version="1.0" encoding="utf-8"?>
<!-- Generator: Adobe Illustrator 17.1.0, SVG Export Plug-In . SVG Version: 6.00 Build 0)  -->
<!DOCTYPE svg PUBLIC "-//W3C//DTD SVG 1.1//EN" "http://www.w3.org/Graphics/SVG/1.1/DTD/svg11.dtd">
<svg version="1.1" id="Layer_1" xmlns="http://www.w3.org/2000/svg" x="0px" y="0px" viewBox="0 0 22 23" enable-background="new 0 0 22 23" xml:space="preserve">
<path fill="#B5B6B6" d="M8.8,2.7l-7.6,7.6C0.4,11,0,12.1,0,13.1c0,1.1,0.4,2.1,1.2,2.9L7,21.8C7.7,22.6,8.8,23,9.9,23
	c1.1,0,2.1-0.4,2.9-1.2l7.6-7.6c0.7-0.7,1.1-1.6,1.2-2.6L22,5.4c0-0.6,0-1.2-0.2-1.7c-0.2-0.6-0.5-1.1-0.9-1.5
	c-0.4-0.4-0.9-0.7-1.5-0.9C18.8,1,18.2,1,17.6,1l-6.3,0.5C10.4,1.6,9.5,2,8.8,2.7z"/>
<path fill="#FFFFFF" d="M8.8,1.7L1.2,9.3C0.4,10,0,11.1,0,12.1c0,1.1,0.4,2.1,1.2,2.9L7,20.8C7.7,21.6,8.8,22,9.9,22
	c1.1,0,2.1-0.4,2.9-1.2l7.6-7.6c0.7-0.7,1.1-1.6,1.2-2.6L22,4.4c0-0.6,0-1.2-0.2-1.7c-0.2-0.6-0.5-1.1-0.9-1.5
	c-0.4-0.4-0.9-0.7-1.5-0.9C18.8,0,18.2,0,17.6,0l-6.3,0.5C10.4,0.6,9.5,1,8.8,1.7z"/>
</svg>
