<?xml version="1.0" encoding="utf-8"?>
<!-- Generator: Adobe Illustrator 17.1.0, SVG Export Plug-In . SVG Version: 6.00 Build 0)  -->
<!DOCTYPE svg PUBLIC "-//W3C//DTD SVG 1.1//EN" "http://www.w3.org/Graphics/SVG/1.1/DTD/svg11.dtd">
<svg version="1.1" xmlns="http://www.w3.org/2000/svg" xmlns:xlink="http://www.w3.org/1999/xlink" x="0px" y="0px"
	 viewBox="0 0 59.3 59.5" enable-background="new 0 0 59.3 59.5" xml:space="preserve">
<g id="Layer_1" display="none">
	
		<image display="inline" overflow="visible" width="22" height="22" xlink:href="../bookmarks-default-ico.png"  transform="matrix(0.9999 0 0 0.9999 16.345 14.8496)">
	</image>
</g>
<g id="Layer_2">
	<path fill="none" stroke="#828282" stroke-width="5" d="M23.4,55l-19-18.8c-2-2-2-5.2,0-7.1L27.9,5.1C29,4,30.5,3.5,32,3.6
		l17.1,1.7c2.4,0.2,4.2,2.1,4.5,4.4l2,17c0.2,1.5-0.3,3-1.4,4.1L30.5,54.9C28.6,56.9,25.4,56.9,23.4,55z"/>
	<path fill="none" stroke="#FFFFFF" stroke-width="4" d="M23.4,55l-19-18.8c-2-2-2-5.2,0-7.1L27.9,5.1C29,4,30.5,3.5,32,3.6
		l17.1,1.7c2.4,0.2,4.2,2.1,4.5,4.4l2,17c0.2,1.5-0.3,3-1.4,4.1L30.5,54.9C28.6,56.9,25.4,56.9,23.4,55z"/>
</g>
</svg>
