<svg width="14" height="12" viewBox="0 0 14 12" fill="none" xmlns="http://www.w3.org/2000/svg">
    <path
        d="M7.42932 0.885842C8.24812 1.07508 8.85793 1.79441 8.85793 2.65116C8.85793 3.50838 8.24775 4.22728 7.42932 4.41647V11.5814C7.42932 11.8126 7.23744 12 7.00074 12C6.76404 12 6.57216 11.8126 6.57216 11.5814V4.41648C5.75336 4.22724 5.14355 3.50791 5.14355 2.65116C5.14355 1.79394 5.75373 1.07505 6.57216 0.885856V0.418605C6.57216 0.187416 6.76404 0 7.00074 0C7.23744 0 7.42932 0.187416 7.42932 0.418605V0.885842ZM6.00072 2.65116C6.00072 3.18965 6.44907 3.62791 7.00074 3.62791C7.55206 3.62791 8.00076 3.18999 8.00076 2.65116C8.00076 2.11268 7.55241 1.67442 7.00074 1.67442C6.44942 1.67442 6.00072 2.11234 6.00072 2.65116Z"
        fill="black" />
    <path
        d="M2.28577 7.58352C3.10457 7.77276 3.71437 8.49209 3.71437 9.34884C3.71437 10.2061 3.1042 10.925 2.28577 11.1141V11.5814C2.28577 11.8126 2.09389 12 1.85719 12C1.62049 12 1.42861 11.8126 1.42861 11.5814V11.1142C0.609805 10.9249 0 10.2056 0 9.34884C0 8.49162 0.610177 7.77272 1.42861 7.58353V0.418605C1.42861 0.187416 1.62049 0 1.85719 0C2.09389 0 2.28577 0.187416 2.28577 0.418605V7.58352ZM0.857163 9.34884C0.857163 9.88732 1.30552 10.3256 1.85719 10.3256C2.40851 10.3256 2.85721 9.88766 2.85721 9.34884C2.85721 8.81035 2.40886 8.37209 1.85719 8.37209C1.30587 8.37209 0.857163 8.81001 0.857163 9.34884Z"
        fill="black" />
    <path
        d="M12.5709 5.07189C13.3897 5.26113 13.9995 5.98046 13.9995 6.83721C13.9995 7.69443 13.3894 8.41332 12.5709 8.60252V11.5814C12.5709 11.8126 12.379 12 12.1423 12C11.9056 12 11.7138 11.8126 11.7138 11.5814V8.60253C10.895 8.41329 10.2852 7.69396 10.2852 6.83721C10.2852 5.97999 10.8953 5.2611 11.7138 5.0719V0.418605C11.7138 0.187416 11.9056 0 12.1423 0C12.379 0 12.5709 0.187416 12.5709 0.418605V5.07189ZM11.1423 6.83721C11.1423 7.3757 11.5907 7.81395 12.1423 7.81395C12.6937 7.81395 13.1424 7.37604 13.1424 6.83721C13.1424 6.29872 12.694 5.86047 12.1423 5.86047C11.591 5.86047 11.1423 6.29838 11.1423 6.83721Z"
        fill="black" />
</svg>
