<svg width="16" height="13" viewBox="0 0 16 13" fill="none" xmlns="http://www.w3.org/2000/svg">
<path fill-rule="evenodd" clip-rule="evenodd" d="M13.4949 0.551214C13.7693 0.296199 14.1396 0.152677 14.5258 0.151678C14.9121 0.150678 15.2833 0.292281 15.5591 0.545873C15.8349 0.799465 15.9932 1.14467 15.9998 1.50686C16.0064 1.86904 15.8607 2.2191 15.5943 2.48136L7.7694 11.6542C7.63491 11.79 7.4726 11.899 7.29217 11.9747C7.11173 12.0504 6.91688 12.0911 6.71926 12.0946C6.52164 12.098 6.32531 12.064 6.14201 11.9947C5.95871 11.9253 5.79221 11.822 5.65245 11.6909L0.4679 6.82695C0.323464 6.70074 0.207616 6.54853 0.127267 6.37941C0.0469168 6.2103 0.00371152 6.02774 0.000228786 5.84262C-0.00325395 5.6575 0.0330573 5.47363 0.106996 5.30196C0.180934 5.13029 0.290985 4.97434 0.430583 4.84343C0.570181 4.71251 0.736467 4.6093 0.91952 4.53996C1.10257 4.47062 1.29864 4.43657 1.49603 4.43984C1.69343 4.4431 1.88809 4.48362 2.06842 4.55897C2.24876 4.63433 2.41105 4.74297 2.54564 4.87842L6.65016 8.72585L13.4577 0.591656C13.4699 0.577416 13.4829 0.563908 13.4969 0.551214H13.4949Z" fill="#E15768"/>
</svg>
