<svg width="24" height="24" viewBox="0 0 24 24" fill="none" xmlns="http://www.w3.org/2000/svg">
<path d="M4 15.9524C4 15.4264 4.4264 15 4.95238 15H18.0476C18.5736 15 19 15.4264 19 15.9524V18.1905C19 20.2944 17.2944 22 15.1905 22H7.80952C5.70558 22 4 20.2944 4 18.1905V15.9524Z" fill="#E15768" fill-opacity="0.5"/>
<path fill-rule="evenodd" clip-rule="evenodd" d="M16.1905 4H7.80952C6.81015 4 6 4.81015 6 5.80952V18.1905C6 19.1898 6.81015 20 7.80952 20H16.1905C17.1898 20 18 19.1898 18 18.1905V5.80952C18 4.81015 17.1898 4 16.1905 4ZM7.80952 2C5.70558 2 4 3.70558 4 5.80952V18.1905C4 20.2944 5.70558 22 7.80952 22H16.1905C18.2944 22 20 20.2944 20 18.1905V5.80952C20 3.70558 18.2944 2 16.1905 2H7.80952Z" fill="#E15768"/>
</svg>
