<svg width="20" height="20" viewBox="0 0 20 20" fill="none" xmlns="http://www.w3.org/2000/svg">
<path d="M7 12C7.6 12 8 12.4 8 13V18C8 18.6 7.6 19 7 19H2C1.4 19 1 18.6 1 18V13C1 12.4 1.4 12 2 12H7ZM7 11H2C0.9 11 0 11.9 0 13V18C0 19.1 0.9 20 2 20H7C8.1 20 9 19.1 9 18V13C9 11.9 8.1 11 7 11Z" fill="#D2D2D3"/>
<path d="M7 1C7.6 1 8 1.4 8 2V7C8 7.6 7.6 8 7 8H2C1.4 8 1 7.6 1 7V2C1 1.4 1.4 1 2 1H7ZM7 0H2C0.9 0 0 0.9 0 2V7C0 8.1 0.9 9 2 9H7C8.1 9 9 8.1 9 7V2C9 0.9 8.1 0 7 0Z" fill="#D2D2D3"/>
<path d="M18 1C18.6 1 19 1.4 19 2V7C19 7.6 18.6 8 18 8H13C12.4 8 12 7.6 12 7V2C12 1.4 12.4 1 13 1H18ZM18 0H13C11.9 0 11 0.9 11 2V7C11 8.1 11.9 9 13 9H18C19.1 9 20 8.1 20 7V2C20 0.9 19.1 0 18 0Z" fill="#D2D2D3"/>
<path d="M18 12C18.6 12 19 12.4 19 13V18C19 18.6 18.6 19 18 19H13C12.4 19 12 18.6 12 18V13C12 12.4 12.4 12 13 12H18ZM18 11H13C11.9 11 11 11.9 11 13V18C11 19.1 11.9 20 13 20H18C19.1 20 20 19.1 20 18V13C20 11.9 19.1 11 18 11Z" fill="#D2D2D3"/>
</svg>
