<svg width="26" height="26" viewBox="0 0 26 26" fill="none" xmlns="http://www.w3.org/2000/svg">
<g filter="url(#filter0_d)">
<path fill-rule="evenodd" clip-rule="evenodd" d="M4.41796 19.1672C4.02743 19.5577 4.02743 20.1909 4.41796 20.5814C4.80848 20.972 5.44165 20.972 5.83217 20.5814L12.9997 13.4139L20.1678 20.582C20.5584 20.9725 21.1915 20.9725 21.5821 20.582C21.9726 20.1915 21.9726 19.5583 21.5821 19.1678L14.4139 11.9997L21.5816 4.8321C21.9721 4.44158 21.9721 3.80842 21.5816 3.41789C21.1911 3.02737 20.5579 3.02737 20.1674 3.41789L12.9997 10.5855L5.83263 3.41847C5.4421 3.02795 4.80893 3.02795 4.41841 3.41847C4.02788 3.809 4.02788 4.44216 4.41841 4.83268L11.5855 11.9997L4.41796 19.1672Z" fill="white"/>
</g>
<defs>
<filter id="filter0_d" x="0.125061" y="0.125" width="25.7499" height="25.7499" filterUnits="userSpaceOnUse" color-interpolation-filters="sRGB">
<feFlood flood-opacity="0" result="BackgroundImageFix"/>
<feColorMatrix in="SourceAlpha" type="matrix" values="0 0 0 0 0 0 0 0 0 0 0 0 0 0 0 0 0 0 127 0"/>
<feOffset dy="1"/>
<feGaussianBlur stdDeviation="2"/>
<feColorMatrix type="matrix" values="0 0 0 0 0 0 0 0 0 0 0 0 0 0 0 0 0 0 0.15 0"/>
<feBlend mode="normal" in2="BackgroundImageFix" result="effect1_dropShadow"/>
<feBlend mode="normal" in="SourceGraphic" in2="effect1_dropShadow" result="shape"/>
</filter>
</defs>
</svg>
