<svg width="12" height="12" viewBox="0 0 12 12" fill="none" xmlns="http://www.w3.org/2000/svg">
<path d="M7.00016 0.500244H5.00016C4.72516 0.500244 4.50016 0.725244 4.50016 1.00024C4.50016 1.27524 4.72516 1.50024 5.00016 1.50024H7.00016C7.27516 1.50024 7.50016 1.27524 7.50016 1.00024C7.50016 0.725244 7.27516 0.500244 7.00016 0.500244ZM6.00016 7.00024C6.27516 7.00024 6.50016 6.77524 6.50016 6.50024V4.50024C6.50016 4.22524 6.27516 4.00024 6.00016 4.00024C5.72516 4.00024 5.50016 4.22524 5.50016 4.50024V6.50024C5.50016 6.77524 5.72516 7.00024 6.00016 7.00024ZM9.51517 3.69524L9.89017 3.32024C9.98262 3.22722 10.0345 3.1014 10.0345 2.97024C10.0345 2.83909 9.98262 2.71327 9.89017 2.62024L9.88517 2.61524C9.79214 2.52279 9.66632 2.4709 9.53516 2.4709C9.40401 2.4709 9.27819 2.52279 9.18516 2.61524L8.81016 2.99024C8.01383 2.34941 7.02233 2.00009 6.00016 2.00024C3.60016 2.00024 1.56016 3.98024 1.50016 6.38024C1.48399 6.98125 1.58845 7.5794 1.80736 8.13935C2.02626 8.6993 2.35518 9.2097 2.77468 9.64039C3.19418 10.0711 3.69575 10.4133 4.24975 10.6469C4.80375 10.8804 5.39894 11.0006 6.00016 11.0002C6.84732 11.0007 7.67737 10.7619 8.39473 10.3112C9.11208 9.86059 9.68756 9.21649 10.0549 8.45311C10.4222 7.68973 10.5664 6.83813 10.4709 5.99637C10.3755 5.15461 10.0441 4.35695 9.51517 3.69524ZM6.00016 10.0002C4.06516 10.0002 2.50016 8.43524 2.50016 6.50024C2.50016 4.56524 4.06516 3.00024 6.00016 3.00024C7.93516 3.00024 9.50016 4.56524 9.50016 6.50024C9.50016 8.43524 7.93516 10.0002 6.00016 10.0002Z" fill="white"/>
</svg>
