<svg width="139" height="14" viewBox="0 0 139 14" fill="none" xmlns="http://www.w3.org/2000/svg">
<path fill-rule="evenodd" clip-rule="evenodd" d="M8.24958 8.57428e-06L8.24958 0H8.2392C8.24266 0 8.24612 2.85879e-06 8.24958 8.57428e-06ZM8.24958 8.57428e-06L6.45607 3.83558H8.2392C9.87741 3.83558 11.2102 5.25328 11.2102 6.99662C11.2102 8.73996 9.87741 10.1577 8.2392 10.1577H6.06695L4.27355 13.9932H8.2392C11.8649 13.9932 14.8147 10.8544 14.8147 6.99662C14.8147 3.14251 11.8705 0.00599174 8.24958 8.57428e-06ZM2.68477e-05 10.1636L4.86806 10.1587L3.07654 13.9851C1.37802 13.9874 2.68477e-05 12.5231 2.68477e-05 10.7158V10.1636ZM2.68477e-05 5.07889H5.95955L4.16615 8.91436H2.68477e-05V5.07889ZM0 3.83559H5.25738L7.05078 4.57494e-06H0V3.83559ZM37.3577 0.268845H34.1941L38.315 13.7303H42.0022L46.124 0.268845H42.9604L40.1586 10.173L37.3577 0.268845ZM133.185 10.7687H136.728L136.088 13.7303H132.968C131.491 13.7303 130.293 12.4564 130.293 10.8849V0.268845H139L138.359 3.23086H133.185V5.4616H137.876L137.244 8.38444H133.185V10.7687ZM51.6517 10.7687H55.1954L54.5546 13.7303H51.4346C49.9571 13.7303 48.7598 12.4564 48.7598 10.8849V0.268845H57.4668L56.8265 3.23086H51.6517V5.4616H56.3436L55.7113 8.38444H51.6517V10.7687ZM26.1693 10.7687H29.7129L29.0721 13.7303H25.9454C24.4717 13.7303 23.2774 12.4596 23.2774 10.8912V0.268845H31.9844L31.3436 3.23086H26.1693V5.4616H30.8611L30.2284 8.38444H26.1693V10.7687ZM121.81 0C117.996 0 115.231 3.03766 115.231 6.99932C115.231 10.961 117.996 14 121.81 14C124.123 14 126.148 12.7878 127.233 10.8849L124.738 9.34624C124.196 10.3846 123.093 10.9993 121.81 10.9993C119.569 10.9993 118.123 9.40343 118.123 6.99932C118.123 4.59612 119.569 2.99984 121.81 2.99984C123.093 2.99984 124.178 3.61494 124.738 4.65376L127.233 3.11466C126.13 1.21038 124.105 0 121.81 0ZM112.264 13.7303V0.268845H109.372V7.57662L104.492 0.268845H102.323V13.7303H105.215V6.42297L110.095 13.7303H112.264ZM93.1931 3.78823L94.6752 8.72972H91.711L93.1931 3.78823ZM90.8432 11.6157H95.5426L96.1749 13.7303H99.3385L95.0365 0.268845H91.3493L87.0473 13.7303H90.2104L90.8432 11.6157ZM79.3791 3.23082C81.3674 3.23082 82.7412 4.69247 82.7412 6.99931C82.7412 9.3075 81.3674 10.7687 79.3791 10.7687H76.364V3.23082H79.3791ZM79.3791 13.7303C82.8678 13.7303 85.5248 10.8075 85.5248 6.99935C85.5248 3.19214 82.8678 0.268845 79.3791 0.268845H73.4722V13.7303H79.3791ZM65.5478 6.61484H63.3788V3.15345H65.5478C66.343 3.15345 66.9935 3.90319 66.9935 4.88392C66.9935 5.8642 66.343 6.61484 65.5478 6.61484ZM63.3789 9.30754H64.7527L67.1384 13.7303H70.2474L67.5544 8.78835C68.946 8.03772 69.8855 6.5378 69.8855 4.88388C69.8855 2.32668 67.9518 0.268845 65.5479 0.268845H60.487V13.7303H63.3789V9.30754Z" fill="#1E1E27"/>
</svg>
