<svg width="25" height="21" viewBox="0 0 25 21" fill="none" xmlns="http://www.w3.org/2000/svg">
<mask id="path-1-inside-1_6844:10026" fill="white">
<path d="M25 9.84097C25 17.2297 18.0147 20.5882 12.0894 20.5882C16.3929 18.6851 17.5541 15.8491 14.4677 17.2297C4.63047 21.63 -4.30371 12.2966 2.23662 4.46734C8.72062 -3.29443 25 -0.58736 25 9.84097Z"/>
</mask>
<path d="M25 9.84097C25 17.2297 18.0147 20.5882 12.0894 20.5882C16.3929 18.6851 17.5541 15.8491 14.4677 17.2297C4.63047 21.63 -4.30371 12.2966 2.23662 4.46734C8.72062 -3.29443 25 -0.58736 25 9.84097Z" fill="#E15768" fill-opacity="0.3"/>
<path d="M12.0894 20.5882L11.2805 18.7591L12.0894 22.5882V20.5882ZM2.23662 4.46734L3.77152 5.74956L2.23662 4.46734ZM14.4677 17.2297L15.2843 19.0554L14.4677 17.2297ZM12.0894 22.5882C15.3881 22.5882 19.0396 21.6615 21.9234 19.6169C24.8705 17.5275 27 14.2638 27 9.84097H23C23 12.8069 21.6369 14.9168 19.61 16.3538C17.5198 17.8357 14.716 18.5882 12.0894 18.5882V22.5882ZM27 9.84097C27 3.32389 21.8661 -0.505712 16.4552 -1.62563C11.0625 -2.74174 4.53944 -1.40888 0.701722 3.18512L3.77152 5.74956C6.4178 2.58179 11.2764 1.3873 15.6445 2.29136C19.9942 3.19162 23 5.92972 23 9.84097H27ZM0.701722 3.18512C-1.21321 5.47743 -2.08558 8.00173 -1.99343 10.4582C-1.90184 12.8995 -0.862971 15.1172 0.766276 16.8181C4.03293 20.2283 9.64356 21.5786 15.2843 19.0554L13.651 15.404C9.4546 17.2812 5.67954 16.1648 3.65488 14.0511C2.63847 12.99 2.05528 11.6814 2.00376 10.3082C1.95281 8.9502 2.41629 7.37186 3.77152 5.74956L0.701722 3.18512ZM15.2843 19.0554C15.5878 18.9197 15.7588 18.873 15.8191 18.861C15.9327 18.8384 15.6707 18.9227 15.2712 18.7656C15.0358 18.673 14.7504 18.4928 14.5257 18.1797C14.3016 17.8675 14.2224 17.5409 14.2091 17.2899C14.1965 17.0538 14.2405 16.8827 14.2653 16.8044C14.2791 16.7608 14.2921 16.7298 14.3001 16.712C14.3043 16.7028 14.3077 16.696 14.3098 16.6918C14.312 16.6875 14.3133 16.6854 14.3133 16.6853C14.3133 16.6853 14.3123 16.6871 14.31 16.6907C14.3078 16.6942 14.3045 16.6994 14.3 16.706C14.2909 16.7195 14.2776 16.738 14.2595 16.7615C14.2227 16.8089 14.1704 16.8706 14.0995 16.945C13.9566 17.0949 13.7559 17.2777 13.4915 17.4809C12.9625 17.8877 12.2227 18.3424 11.2805 18.7591L12.8983 22.4174C14.1079 21.8825 15.1271 21.269 15.9297 20.6519C16.6993 20.0602 17.3804 19.3803 17.7863 18.6698C17.9737 18.3418 18.2403 17.7717 18.2034 17.0778C18.1831 16.6946 18.0669 16.2537 17.7754 15.8475C17.4832 15.4404 17.0999 15.1866 16.7355 15.0432C16.0781 14.7846 15.4341 14.8591 15.0373 14.9382C14.587 15.0279 14.1192 15.1946 13.651 15.404L15.2843 19.0554Z" fill="#E15768" mask="url(#path-1-inside-1_6844:10026)"/>
</svg>
