<svg width="24" height="24" viewBox="0 0 24 24" fill="none" xmlns="http://www.w3.org/2000/svg">
<path d="M4.5 13L4.68829 13.4035C6.29802 16.8529 10.8459 17.6541 13.5375 14.9625L13.6496 14.8504C15.3325 13.1675 17.9336 12.8192 20 14L19 17L16.5 21L11 21.5L6 20L4.5 16.5V13Z" fill="#E15768" fill-opacity="0.5"/>
<path d="M9.6 10.4615L6.15818 7.91176C4.93119 9.76284 4 11.9457 4 14.3077C4 16.3478 4.84285 18.3044 6.34315 19.747C7.84344 21.1896 9.87827 22 12 22C14.1217 22 16.1566 21.1896 17.6569 19.747C19.1571 18.3044 20 16.3478 20 14.3077C20 7.38462 12.8 2 12.8 2L9.6 10.4615Z" stroke="#E15768" stroke-width="2" stroke-linecap="round" stroke-linejoin="round"/>
</svg>
