<svg width="25" height="25" viewBox="0 0 25 25" fill="none" xmlns="http://www.w3.org/2000/svg">
<path d="M22.3975 1.9873H16.6455C16.3037 1.9873 16.0303 2.26074 16.0303 2.60254C16.0303 2.94434 16.3037 3.21777 16.6455 3.21777H20.9082L13.7988 10.3271C12.5049 9.2334 10.8838 8.6377 9.16992 8.6377C7.25098 8.6377 5.44434 9.38477 4.08691 10.7422C2.72949 12.0996 1.98242 13.9063 1.98242 15.8252C1.98242 17.7441 2.73438 19.5508 4.0918 20.9082C5.44922 22.2656 7.25586 23.0127 9.1748 23.0127C11.0937 23.0127 12.9004 22.2656 14.2578 20.9082C15.6152 19.5508 16.3623 17.7441 16.3623 15.8252C16.3623 14.1113 15.7666 12.4902 14.6729 11.1963L21.7822 4.0918V8.35449C21.7822 8.69629 22.0557 8.96973 22.3975 8.96973C22.7393 8.96973 23.0127 8.69629 23.0127 8.35449V2.60254C23.0127 2.26562 22.7344 1.9873 22.3975 1.9873ZM13.3838 20.0342C12.2607 21.1572 10.7617 21.7773 9.1748 21.7773C7.58789 21.7773 6.08887 21.1572 4.96582 20.0342C3.84277 18.9111 3.22266 17.4121 3.22266 15.8252C3.22266 14.2383 3.84277 12.7393 4.96582 11.6162C6.08887 10.4932 7.58789 9.87305 9.1748 9.87305C10.7617 9.87305 12.2607 10.4932 13.3838 11.6162C14.5068 12.7393 15.127 14.2383 15.127 15.8252C15.127 17.4121 14.5068 18.9111 13.3838 20.0342Z" fill="#1E1E27"/>
</svg>
