<svg width="25" height="25" viewBox="0 0 25 25" fill="none" xmlns="http://www.w3.org/2000/svg">
<path d="M17.6541 11.5209C17.6541 8.71133 15.3685 6.4292 12.5624 6.4292C9.75628 6.4292 7.4707 8.71478 7.4707 11.5209C7.4707 14.1616 9.49428 16.3403 12.0694 16.5885V19.9634H10.263C9.9907 19.9634 9.77007 20.184 9.77007 20.4564C9.77007 20.7287 9.9907 20.9493 10.263 20.9493H12.0694V22.7557C12.0694 23.0281 12.2901 23.2487 12.5624 23.2487C12.8347 23.2487 13.0554 23.0281 13.0554 22.7557V20.9493H14.8618C15.1341 20.9493 15.3547 20.7287 15.3547 20.4564C15.3547 20.184 15.1341 19.9634 14.8618 19.9634H13.0554V16.5885C15.6305 16.3403 17.6541 14.1616 17.6541 11.5209ZM8.45319 11.5209C8.45319 9.25601 10.2941 7.41513 12.559 7.41513C14.8238 7.41513 16.6647 9.25601 16.6647 11.5209C16.6647 13.7858 14.8238 15.6267 12.5624 15.6267C10.301 15.6267 8.45319 13.7858 8.45319 11.5209Z" fill="#1E1E27"/>
<path d="M21.7975 1.75122H17.74C17.4987 1.75122 17.3056 1.94427 17.3056 2.18558C17.3056 2.4269 17.4987 2.61995 17.74 2.61995H20.7495L15.7302 7.63925C14.8167 6.86705 13.6722 6.44648 12.4622 6.44648C11.1074 6.44648 9.83185 6.97392 8.87349 7.93228C7.91514 8.89063 7.3877 10.1661 7.3877 11.5209C7.3877 12.8757 7.91514 14.1513 8.87349 15.1096C9.83185 16.068 11.1074 16.5954 12.4622 16.5954C13.817 16.5954 15.0925 16.068 16.0508 15.1096C17.0092 14.1513 17.5366 12.8757 17.5366 11.5209C17.5366 10.3109 17.116 9.16642 16.3438 8.25288L21.3632 3.23702V6.24653C21.3632 6.48785 21.5562 6.6809 21.7975 6.6809C22.0388 6.6809 22.2319 6.48785 22.2319 6.24653V2.18558C22.2353 1.94427 22.0388 1.75122 21.7975 1.75122ZM15.4372 14.4925C14.6443 15.2854 13.586 15.7232 12.4656 15.7232C11.3452 15.7232 10.2869 15.2854 9.49401 14.4925C8.70113 13.6997 8.26332 12.6413 8.26332 11.5209C8.26332 10.4006 8.70113 9.34223 9.49401 8.54935C10.2869 7.75646 11.3452 7.31865 12.4656 7.31865C13.586 7.31865 14.6443 7.75646 15.4372 8.54935C16.2301 9.34223 16.6679 10.4006 16.6679 11.5209C16.6679 12.6413 16.2301 13.6997 15.4372 14.4925Z" fill="#1E1E27"/>
<path d="M2.80957 2.18558V6.24309C2.80957 6.4844 3.00262 6.67745 3.24393 6.67745C3.48525 6.67745 3.6783 6.4844 3.6783 6.24309V3.23702L8.6976 8.25632C7.9254 9.16987 7.50483 10.3144 7.50483 11.5244C7.50483 12.8792 8.03227 14.1547 8.99062 15.1131C9.94898 16.0714 11.2245 16.5989 12.5793 16.5989C13.9341 16.5989 15.2096 16.0714 16.168 15.1131C17.1263 14.1547 17.6538 12.8792 17.6538 11.5244C17.6538 10.1696 17.1263 8.89408 16.168 7.93572C15.2096 6.97737 13.9341 6.44648 12.5793 6.44648C11.3693 6.44648 10.2248 6.86705 9.31122 7.63925L4.29537 2.61995H7.30488C7.54619 2.61995 7.73924 2.4269 7.73924 2.18558C7.73924 1.94427 7.54619 1.75122 7.30488 1.75122H3.24393C3.00262 1.75122 2.80957 1.94427 2.80957 2.18558ZM8.377 11.5209C8.377 10.3971 8.81481 9.34223 9.6077 8.54935C10.4006 7.75646 11.4589 7.31865 12.5793 7.31865C13.6997 7.31865 14.758 7.75646 15.5509 8.54935C16.3438 9.34223 16.7816 10.4006 16.7816 11.5209C16.7816 12.6413 16.3438 13.6997 15.5509 14.4925C14.758 15.2854 13.6997 15.7232 12.5793 15.7232C11.4589 15.7232 10.4006 15.2854 9.6077 14.4925C8.81136 13.6997 8.377 12.6448 8.377 11.5209Z" fill="#1E1E27"/>
<path d="M5.38867 8.17363L9.23589 4.32642" stroke="#1E1E27" stroke-miterlimit="10" stroke-linecap="round"/>
</svg>
