<svg width="25" height="25" viewBox="0 0 25 25" fill="none" xmlns="http://www.w3.org/2000/svg">
<path d="M19.7119 7.79785C19.7119 3.82324 16.4795 0.585938 12.5 0.585938C8.52051 0.585938 5.28809 3.82324 5.28809 7.79785C5.28809 11.5381 8.1543 14.624 11.8018 14.9756V19.7559H9.24316C8.85742 19.7559 8.54492 20.0684 8.54492 20.4541C8.54492 20.8398 8.85742 21.1523 9.24316 21.1523H11.8018V23.7109C11.8018 24.0967 12.1143 24.4092 12.5 24.4092C12.8857 24.4092 13.1982 24.0967 13.1982 23.7109V21.1523H15.7568C16.1426 21.1523 16.4551 20.8398 16.4551 20.4541C16.4551 20.0684 16.1426 19.7559 15.7568 19.7559H13.1982V14.9756C16.8506 14.6289 19.7119 11.543 19.7119 7.79785ZM6.68457 7.79785C6.68457 4.58984 9.29199 1.98242 12.5 1.98242C15.708 1.98242 18.3154 4.58984 18.3154 7.79785C18.3154 11.0059 15.708 13.6182 12.5 13.6182C9.29199 13.6182 6.68457 11.0059 6.68457 7.79785Z" fill="#1E1E27"/>
</svg>
