<svg width="20" height="20" viewBox="0 0 20 20" fill="none" xmlns="http://www.w3.org/2000/svg">
<path d="M10 1C12.3 1 16.3 3.4 17.1 12.5C17.1 13.7 17.7 14.6 18.8 14.9C16.8 14.7 12.9 14.4 10 14.4C7.1 14.4 3.1 14.8 1.1 14.9C2.2 14.5 2.7 13.3 2.8 12.6C3.6 3.4 7.9 1 10 1ZM10 0C7.4 0 2.6 2.6 1.9 12.4C1.9 12.4 1.6 14 0.5 14C0.4 14 0 14.1 0 14.7C0 15.1 0 16 0 16C0 16 6 15.3 10 15.3C14 15.3 20 16 20 16C20 16 20 15.1 20 14.7C20 14.2 19.7 14.1 19.5 14C19.4 14 18.1 14 18.1 12.5C17.3 2.5 12.6 0 10 0Z" fill="#D2D2D3"/>
<path d="M10 18C10.8 18 11.3 18 11.8 18.1C11.5 18.6 10.8 19 10 19C9.2 19 8.6 18.6 8.2 18.1C8.7 18 9.2 18 10 18ZM10 17C7.9 17 7 17.3 7 17.3C7 18.8 8.3 20 10 20C11.7 20 13 18.8 13 17.3C13 17.3 12.1 17 10 17Z" fill="#D2D2D3"/>
</svg>
