<svg width="20" height="20" viewBox="0 0 20 20" fill="none" xmlns="http://www.w3.org/2000/svg">
<path d="M19.5094 13.985C19.4256 13.9743 18.125 13.9853 18.125 12.4503C17.2591 2.52175 12.6403 0 10.0219 0C7.40406 0 2.6675 2.59295 1.875 12.3539C1.875 12.3539 1.59187 13.9538 0.490937 13.985C0.397812 14.0233 0 14.1267 0 14.6567C0 15.0765 0 16 0 16C0 16 6.01562 15.3283 10 15.3283C13.9844 15.3283 20 16 20 16C20 16 20 15.1184 20 14.6567C20 14.1949 19.7363 14.0166 19.5094 13.985Z" fill="#A5A6A7"/>
<path d="M10 20C11.6586 20 13 18.7746 13 17.2958C13 17.2958 12.1328 17 10 17C7.86722 17 7 17.2958 7 17.2958C7 18.7746 8.34168 20 10 20Z" fill="#A5A6A7"/>
</svg>
