<svg width="81" height="81" viewBox="0 0 81 81" fill="none" xmlns="http://www.w3.org/2000/svg">
<path fill-rule="evenodd" clip-rule="evenodd" d="M40.5 79.6C62.0943 79.6 79.6 62.0943 79.6 40.5C79.6 18.9057 62.0943 1.4 40.5 1.4C18.9057 1.4 1.4 18.9057 1.4 40.5C1.4 62.0943 18.9057 79.6 40.5 79.6ZM40.5 81C62.8675 81 81 62.8675 81 40.5C81 18.1325 62.8675 0 40.5 0C18.1325 0 0 18.1325 0 40.5C0 62.8675 18.1325 81 40.5 81ZM24.9169 56.3991L24.9172 56.3985L24.9172 56.3983L24.9234 56.3847L24.9404 56.3478L24.9551 56.3167C24.9848 56.2541 25.0319 56.1578 25.0971 56.0326C25.2277 55.7822 25.4306 55.4169 25.7123 54.9751C26.2765 54.0902 27.1517 52.906 28.3879 51.7222C30.8491 49.3653 34.7469 47 40.5422 47C46.342 47 50.2191 49.3319 52.6568 51.6506C53.8816 52.8156 54.7455 53.9807 55.3012 54.8509C55.5787 55.2854 55.7781 55.6445 55.9062 55.8906C55.9702 56.0135 56.0163 56.1081 56.0454 56.1694C56.0599 56.2001 56.0702 56.2224 56.0762 56.2359L56.0821 56.2488L56.0822 56.2493L56.0824 56.2497L56.0826 56.2501L56.0827 56.2504C56.3024 56.7563 56.8903 56.9889 57.3967 56.7701C57.9037 56.5509 58.137 55.9624 57.9179 55.4554L57 55.8521C57.9179 55.4554 57.9177 55.4549 57.9175 55.4543L57.9169 55.4531L57.9155 55.4498L57.9115 55.4407L57.8986 55.4118L57.8798 55.3709C57.8721 55.3541 57.8632 55.335 57.853 55.3135C57.8137 55.2306 57.7564 55.1134 57.6802 54.967C57.5278 54.6742 57.2992 54.2636 56.9869 53.7745C56.363 52.7975 55.3999 51.4996 54.0352 50.2015C51.294 47.5941 46.9422 45 40.5422 45C34.1379 45 29.7645 47.6347 27.0046 50.2778C25.6301 51.594 24.6572 52.9098 24.0259 53.8999C23.7099 54.3956 23.4783 54.8116 23.3237 55.108C23.2464 55.2563 23.1883 55.3748 23.1484 55.4587C23.1285 55.5006 23.1132 55.5339 23.1023 55.558L23.0892 55.587L23.0852 55.5962L23.0838 55.5994L23.0832 55.6006C23.083 55.6012 23.0828 55.6017 24 56L23.0828 55.6017C22.8628 56.1083 23.0951 56.6973 23.6017 56.9172C24.108 57.1371 24.6966 56.9051 24.9169 56.3991ZM51 29.5C51 35.299 46.299 40 40.5 40C34.701 40 30 35.299 30 29.5C30 23.701 34.701 19 40.5 19C46.299 19 51 23.701 51 29.5ZM41.4501 23.8937L42.5066 27.1115H45.8962C46.8674 27.1115 47.2685 28.3564 46.4799 28.9234L43.7467 30.8885L44.7963 34.0852C45.0982 35.0047 44.0482 35.774 43.2624 35.2091L40.5 33.2229L37.7376 35.2091C36.9518 35.774 35.9018 35.0047 36.2037 34.0852L37.2533 30.8885L34.5201 28.9234C33.7315 28.3564 34.1326 27.1115 35.1038 27.1115H38.4934L39.5499 23.8937C39.8511 22.9763 41.1489 22.9763 41.4501 23.8937Z" fill="#7B768F"/>
</svg>
