<svg width="16" height="16" viewBox="0 0 16 16" fill="none" xmlns="http://www.w3.org/2000/svg">
<path fill-rule="evenodd" clip-rule="evenodd" d="M13.3302 8.00016C13.3302 7.26483 12.7322 6.66683 11.9969 6.66683H11.3302V4.66683C11.3302 2.82883 9.83491 1.3335 7.99691 1.3335C6.15891 1.3335 4.66357 2.82883 4.66357 4.66683V6.66683H3.99691C3.26157 6.66683 2.66357 7.26483 2.66357 8.00016V13.3335C2.66357 14.0688 3.26157 14.6668 3.99691 14.6668H11.9969C12.7322 14.6668 13.3302 14.0688 13.3302 13.3335V8.00016ZM5.99691 4.66683C5.99691 3.56416 6.89424 2.66683 7.99691 2.66683C9.09957 2.66683 9.99691 3.56416 9.99691 4.66683V6.66683H5.99691V4.66683ZM7.477 8.8469C7.477 8.5632 7.70698 8.33323 7.99067 8.33323C8.27436 8.33323 8.50434 8.5632 8.50434 8.8469V10.5572C8.7676 10.7264 8.94199 11.0219 8.94199 11.358C8.94199 11.8834 8.51611 12.3093 7.99075 12.3093C7.46538 12.3093 7.0395 11.8834 7.0395 11.358C7.0395 11.0219 7.21382 10.7265 7.477 10.5573V8.8469Z" fill="white"/>
</svg>
