<svg width="24" height="24" viewBox="0 0 24 24" fill="none" xmlns="http://www.w3.org/2000/svg">
<path fill-rule="evenodd" clip-rule="evenodd" d="M7 9C7 6.23858 9.23858 4 12 4C14.7614 4 17 6.23858 17 9V10H7V9ZM5 10V9C5 5.13401 8.13401 2 12 2C15.866 2 19 5.13401 19 9V10H20C20.5523 10 21 10.4477 21 11V21C21 21.5523 20.5523 22 20 22H4C3.44772 22 3 21.5523 3 21V11C3 10.4477 3.44772 10 4 10H5ZM18 12H19V20H5V12H6H18ZM12 14C12.5523 14 13 14.4477 13 15V17C13 17.5523 12.5523 18 12 18C11.4477 18 11 17.5523 11 17V15C11 14.4477 11.4477 14 12 14Z" fill="black" fill-opacity="0.5"/>
</svg>
