<svg width="22" height="21" viewBox="0 0 22 21" fill="none" xmlns="http://www.w3.org/2000/svg">
<g clip-path="url(#clip0_6844:10038)">
<path d="M11 10.4576C14.0204 10.4576 16.4778 8.11193 16.4778 5.22875C16.4778 2.34557 14.0204 0 11 0C7.97959 0 5.52222 2.34562 5.52222 5.2288C5.52222 8.11198 7.97953 10.4576 11 10.4576ZM11 2.03719C12.8436 2.03719 14.3436 3.46892 14.3436 5.2288C14.3436 6.98868 12.8437 8.42041 11 8.42041C9.15633 8.42041 7.65641 6.98863 7.65641 5.2288C7.65641 3.46898 9.15633 2.03719 11 2.03719Z" fill="#E15768" stroke="#1E1E27" stroke-width="0.1"/>
<path d="M11.0001 11.3745C6.02815 11.3745 1.98315 15.2356 1.98315 19.9816V21.0002H20.0171V19.9816C20.0171 15.2356 15.9721 11.3745 11.0001 11.3745ZM4.19989 18.963C4.71407 15.8222 7.56765 13.4117 11.0001 13.4117C14.4325 13.4117 17.2861 15.8222 17.8003 18.963H4.19989Z" fill="#E15768" stroke="#1E1E27" stroke-width="0.1"/>
<ellipse cx="11" cy="4.77277" rx="4" ry="3.81818" fill="#E15768" fill-opacity="0.3"/>
<path d="M18.5 19.5683H3L3.5 17.1819L5.5 14.7955L7 13.841L9 12.4092H11H13L15 13.3637L17 14.7955L18.5 17.6592V19.5683Z" fill="#E15768" fill-opacity="0.3"/>
</g>
<defs>
<clipPath id="clip0_6844:10038">
<rect width="22" height="21" fill="white"/>
</clipPath>
</defs>
</svg>
