<svg width="40" height="40" viewBox="0 0 40 40" fill="none" xmlns="http://www.w3.org/2000/svg">
<circle cx="20" cy="20" r="20" fill="#CFCFCF"/>
<path fill-rule="evenodd" clip-rule="evenodd" d="M30.4001 19.2C30.4001 20.9673 28.9674 22.4 27.2001 22.4C25.4328 22.4 24.0001 20.9673 24.0001 19.2C24.0001 17.4327 25.4328 16 27.2001 16C28.9674 16 30.4001 17.4327 30.4001 19.2ZM16.0001 19.2C16.0001 20.9673 14.5674 22.4 12.8001 22.4C11.0328 22.4 9.6001 20.9673 9.6001 19.2C9.6001 17.4327 11.0328 16 12.8001 16C14.5674 16 16.0001 17.4327 16.0001 19.2ZM17.249 25.4637C17.7624 25.2712 18.3343 25.5281 18.5322 26.0379C18.5333 26.0403 18.5357 26.046 18.5395 26.0544C18.549 26.0752 18.5668 26.1122 18.5935 26.1598C18.6481 26.2567 18.734 26.3874 18.8546 26.5161C19.085 26.7618 19.4354 27 20.0001 27C20.5648 27 20.9152 26.7618 21.1456 26.5161C21.2662 26.3874 21.3521 26.2567 21.4066 26.1598C21.4334 26.1122 21.4512 26.0752 21.4607 26.0544C21.4645 26.046 21.4669 26.0403 21.468 26.0379C21.6659 25.5281 22.2378 25.2712 22.7512 25.4637C23.2683 25.6576 23.5303 26.234 23.3364 26.7511L22.4003 26.4001C23.3364 26.7511 23.3363 26.7516 23.3361 26.7521L23.3357 26.753L23.3349 26.7551L23.3332 26.7596L23.329 26.7705L23.3174 26.7993C23.3082 26.8216 23.2961 26.8498 23.2809 26.8832C23.2506 26.9498 23.2074 27.0379 23.1498 27.1403C23.0356 27.3434 22.859 27.6127 22.6046 27.884C22.085 28.4382 21.2354 29 20.0001 29C18.7648 29 17.9152 28.4382 17.3956 27.884C17.1412 27.6127 16.9646 27.3434 16.8504 27.1403C16.7928 27.0379 16.7496 26.9498 16.7193 26.8832C16.7041 26.8498 16.692 26.8216 16.6828 26.7993L16.6712 26.7705L16.667 26.7596L16.6652 26.7551L16.6645 26.753L16.6641 26.7521C16.6639 26.7516 16.6638 26.7511 17.6001 26.4L16.6638 26.7511C16.4698 26.234 16.7319 25.6576 17.249 25.4637Z" fill="black"/>
</svg>
